<?xml version="1.0" encoding="UTF-8" standalone="no"?>
<!-- Created with Inkscape (http://www.inkscape.org/) -->

<svg
   width="84.459618mm"
   height="109.58961mm"
   viewBox="0 0 84.459618 109.58961"
   version="1.1"
   id="svg1"
   xml:space="preserve"
   xmlns="http://www.w3.org/2000/svg"
   xmlns:svg="http://www.w3.org/2000/svg"><defs
     id="defs1" /><g
     id="layer1"
     transform="translate(-46.160076,-36.357902)"><path
       style="fill:#ffffff;stroke:#d6d6d6;stroke-width:10;stroke-dasharray:none;stroke-opacity:1"
       d="m 51.160076,41.499244 c 0,99.448276 0,99.448276 0,99.448276 H 125.61969 V 52.357906 L 106.57291,41.36124 Z"
       id="path1" /></g><g
     id="layer2"
     transform="translate(-46.160076,-36.357902)"><path
       d="m 115.23284,106.95625 c -2.75167,-3.93835 -8.18621,-5.1057 -12.11564,-2.60213 l -6.901039,4.39836 a 7.9172328,7.9172328 0 0 0 -3.576796,5.30299 8.3379732,8.3379732 0 0 0 0.822219,5.353 7.9391139,7.9391139 0 0 0 -1.184328,2.95881 8.437192,8.437192 0 0 0 1.441265,6.38061 c 2.752249,3.93871 8.186809,5.10555 12.115629,2.60211 l 6.90105,-4.39834 a 7.9157247,7.9157247 0 0 0 3.5768,-5.30299 8.3413334,8.3413334 0 0 0 -0.82161,-5.35313 7.9374999,7.9374999 0 0 0 1.18382,-2.95868 8.4349166,8.4349166 0 0 0 -1.44126,-6.38061"
       style="fill:#ff3e00;stroke-width:0.264583"
       id="path1-2" /><path
       d="m 102.44302,129.11843 a 5.4816903,5.4816903 0 0 1 -5.883562,-2.18085 5.0730943,5.0730943 0 0 1 -0.866934,-3.83712 4.8124004,4.8124004 0 0 1 0.164915,-0.64444 l 0.129963,-0.3963 0.353563,0.25969 a 8.9017209,8.9017209 0 0 0 2.699544,1.3488 l 0.256486,0.0778 -0.0236,0.25598 a 1.5471246,1.5471246 0 0 0 0.27834,1.02608 1.6507089,1.6507089 0 0 0 1.771435,0.65749 1.5200048,1.5200048 0 0 0 0.42389,-0.18629 l 6.90123,-4.39785 a 1.4368462,1.4368462 0 0 0 0.64839,-0.9607 1.5332075,1.5332075 0 0 0 -0.26128,-1.15655 1.6519525,1.6519525 0 0 0 -1.77213,-0.65786 1.5194227,1.5194227 0 0 0 -0.42333,0.18616 l -2.63345,1.67876 a 5.0357881,5.0357881 0 0 1 -1.40137,0.61539 5.4816639,5.4816639 0 0 1 -5.883473,-2.18088 5.0727239,5.0727239 0 0 1 -0.866934,-3.83709 4.7594572,4.7594572 0 0 1 2.151062,-3.18858 l 6.900615,-4.39822 a 5.0280887,5.0280887 0 0 1 1.40229,-0.61613 5.4816903,5.4816903 0 0 1 5.88346,2.18085 5.0730943,5.0730943 0 0 1 0.86694,3.83712 4.8683333,4.8683333 0 0 1 -0.16492,0.64445 l -0.12996,0.39629 -0.35338,-0.25929 a 8.8946301,8.8946301 0 0 0 -2.69972,-1.34937 l -0.25649,-0.0778 0.0236,-0.25598 a 1.5501408,1.5501408 0 0 0 -0.27834,-1.02606 1.6507089,1.6507089 0 0 0 -1.77144,-0.65749 1.5200048,1.5200048 0 0 0 -0.42389,0.1863 l -6.90123,4.39803 a 1.4345179,1.4345179 0 0 0 -0.647875,0.96044 1.5309321,1.5309321 0 0 0 0.26077,1.15668 1.6519789,1.6519789 0 0 0 1.772115,0.65786 1.5253758,1.5253758 0 0 0 0.42386,-0.18629 l 2.63311,-1.67812 a 5.0212624,5.0212624 0 0 1 1.40121,-0.6159 5.4816639,5.4816639 0 0 1 5.88348,2.18088 5.0727239,5.0727239 0 0 1 0.86694,3.83709 4.7618914,4.7618914 0 0 1 -2.15107,3.18908 l -6.90065,4.39785 a 5.0280887,5.0280887 0 0 1 -1.40229,0.61613"
       style="fill:#ffffff;stroke-width:0.264583"
       id="path2" /></g></svg>
